<?xml version="1.0" encoding="UTF-8" standalone="no"?>
<!DOCTYPE svg PUBLIC "-//W3C//DTD SVG 1.1//EN" "http://www.w3.org/Graphics/SVG/1.1/DTD/svg11.dtd">
<svg version="1.1" xmlns="http://www.w3.org/2000/svg" xmlns:xlink="http://www.w3.org/1999/xlink" preserveAspectRatio="xMidYMid meet" viewBox="0 0 640 640" width="640" height="640"><defs><path d="M415.66 232.7C417.49 232.46 419.17 233.75 419.41 235.58C421.14 248.69 425.89 284.71 427.62 297.82C427.86 299.63 426.56 301.29 424.74 301.49C423.19 301.66 419.37 302.08 417.2 302.31C417.09 302.33 416.98 302.24 416.97 302.13C415.23 288.44 410.08 247.73 408.36 234.08C408.33 233.85 408.49 233.64 408.72 233.61C410.77 233.34 414.19 232.89 415.66 232.7Z" id="c2ik0gdS8K"></path><path d="M315.3 143.11C339.13 147.02 380.59 224.85 343.46 200.87C306.32 176.89 276.34 201.78 269.09 202.03C261.83 202.28 291.47 139.19 315.3 143.11Z" id="a3irHFCBI"></path><path d="M492.5 281.33C510.62 306.07 523.17 332.92 530.15 361.89C544.16 411.4 549.73 451.14 546.87 481.11C542.58 526.06 536.92 537.41 526.84 558.17C516.75 578.93 496.21 596.12 466.75 603.84C437.29 611.56 418.82 595.27 389.49 595.27C360.16 595.27 341.62 607.47 309.37 606.69C287.86 606.17 274.51 604.27 269.3 600.98C234.97 591.47 209.21 578.15 192.04 561.02C166.29 535.34 149.12 513.93 131.95 481.11C114.78 448.29 131.95 434.02 140.54 395.49C146.26 369.81 163.43 327.95 192.04 269.91C203.01 246.61 221.14 227.58 246.41 212.83C284.33 190.72 260.72 206.41 289.33 192.86C308.41 183.82 332.26 187.62 360.87 204.27C430.5 230.91 474.38 256.6 492.5 281.33Z" id="d2fWrGSpYJ"></path><path d="M470.75 385.5C470.75 401.1 458.06 413.76 442.42 413.76C426.79 413.76 414.1 401.1 414.1 385.5C414.1 369.91 426.79 357.25 442.42 357.25C458.06 357.25 470.75 369.91 470.75 385.5Z" id="a28tgOstZv"></path><path d="M336.06 366.67C336.06 399.59 309.26 426.31 276.25 426.31C243.25 426.31 216.45 399.59 216.45 366.67C216.45 333.74 243.25 307.02 276.25 307.02C309.26 307.02 336.06 333.74 336.06 366.67Z" id="b85eAif7r"></path><path d="M117.25 288.08C108.24 310.53 103.19 333.19 103.71 350.54C105.28 403.12 166.66 463.56 223.31 460.42C261.09 458.33 288.37 453.09 305.15 444.72C376.5 409.14 404.83 365.19 390.14 312.87C387.05 301.88 382.35 291.81 376.39 282.62C363.2 262.29 343.86 246.22 322.26 233.85C283.86 211.86 238.33 201.57 207.58 199.85C170.14 197.74 135.54 242.5 117.25 288.08Z" id="a9TpCOm49"></path><path d="M320.89 353.68C320.89 386.6 294.09 413.33 261.09 413.33C228.08 413.33 201.28 386.6 201.28 353.68C201.28 320.76 228.08 294.03 261.09 294.03C294.09 294.03 320.89 320.76 320.89 353.68Z" id="boTwOqExp"></path><path d="" id="dUkWrE9Qg"></path><path d="M316.19 145.2C305.52 152.65 277.44 131.04 253.53 96.97C229.62 62.91 218.88 29.2 229.55 21.75C240.22 14.29 268.3 35.9 292.21 69.97C316.12 104.04 326.87 137.75 316.19 145.2Z" id="b6tQLb6gSC"></path><path d="M426.69 59.78C432.76 68.86 409.53 94.97 374.84 118.04C340.14 141.1 307.05 152.45 300.98 143.37C294.9 134.28 318.14 108.17 352.83 85.11C387.52 62.04 420.61 50.69 426.69 59.78Z" id="epl33NIM"></path><path d="M267.4 454.48C269.88 454.15 272.16 455.9 272.48 458.38C274.83 476.18 281.28 525.08 283.63 542.87C283.96 545.34 282.19 547.59 279.72 547.86C277.62 548.09 272.43 548.65 269.49 548.97C269.33 548.99 269.19 548.88 269.17 548.72C266.82 530.14 259.82 474.88 257.48 456.35C257.44 456.04 257.66 455.76 257.97 455.71C260.75 455.35 265.4 454.74 267.4 454.48Z" id="j42yPT8cIC"></path><path d="M152.96 331.77C151.64 309.26 162.26 288.07 184.82 268.21" id="h11DC7Lrmb"></path><path d="" id="akNxAhZvl"></path><path d="M300.01 142C303.58 144.47 302.14 148.57 295.71 154.31C330.24 163.26 342.84 164.31 333.51 157.47C324.19 150.63 322.18 145.47 327.5 142C305.61 139.53 296.44 139.53 300.01 142Z" id="d39M8p0zze"></path></defs><g><g><g><use xlink:href="#c2ik0gdS8K" opacity="1" fill="#e565fb" fill-opacity="1"></use></g><g><use xlink:href="#a3irHFCBI" opacity="1" fill="#ffb901" fill-opacity="1"></use></g><g><use xlink:href="#d2fWrGSpYJ" opacity="1" fill="#ff7500" fill-opacity="1"></use></g><g><use xlink:href="#a28tgOstZv" opacity="1" fill="#ffb901" fill-opacity="1"></use></g><g><use xlink:href="#b85eAif7r" opacity="1" fill="#acfff0" fill-opacity="1"></use></g><g><use xlink:href="#a9TpCOm49" opacity="1" fill="#ff7500" fill-opacity="1"></use><g><use xlink:href="#a9TpCOm49" opacity="1" fill-opacity="0" stroke="#ffb901" stroke-width="6" stroke-opacity="1"></use></g></g><g><use xlink:href="#boTwOqExp" opacity="1" fill="#ffb901" fill-opacity="1"></use></g><g><g><use xlink:href="#dUkWrE9Qg" opacity="1" fill-opacity="0" stroke="#7fff00" stroke-width="1" stroke-opacity="1"></use></g></g><g><use xlink:href="#b6tQLb6gSC" opacity="1" fill="#ffb901" fill-opacity="1"></use></g><g><use xlink:href="#epl33NIM" opacity="1" fill="#ffb901" fill-opacity="1"></use></g><g><use xlink:href="#j42yPT8cIC" opacity="1" fill="#ffb901" fill-opacity="1"></use></g><g><g><use xlink:href="#h11DC7Lrmb" opacity="1" fill-opacity="0" stroke="#ffb901" stroke-width="5" stroke-opacity="1"></use></g></g><g><use xlink:href="#akNxAhZvl" opacity="1" fill="#ffb901" fill-opacity="1"></use><g><use xlink:href="#akNxAhZvl" opacity="1" fill-opacity="0" stroke="#da00ff" stroke-width="5" stroke-opacity="1"></use></g></g><g><use xlink:href="#d39M8p0zze" opacity="1" fill="#ffb901" fill-opacity="1"></use></g></g></g></svg>